<svg version="1.2" xmlns="http://www.w3.org/2000/svg" viewBox="0 0 800 800" width="800" height="800">
	<title>Reset</title>
	<style>
		.s0 { fill: #000000;stroke: #000000;stroke-miterlimit:10 } 
		.s1 { fill: #ffffff;stroke: #000000;stroke-miterlimit:10 } 
		.s2 { fill: #ffffff;stroke: #ffffff;stroke-miterlimit:10 } 
	</style>
	<g id="Layer 1">
		<path id="Shape 1" fill-rule="evenodd" class="s0" d="m400.3 775.5c-207.6 0-375.3-167.7-375.3-375.3 0-207.5 167.7-375.2 375.3-375.2 207.5 0 375.2 167.7 375.2 375.3 0 207.5-167.7 375.2-375.2 375.2z"/>
		<g id="&lt;Group&gt;">
			<path id="Shape 1 copy" fill-rule="evenodd" class="s0" d=""/>
		</g>
		<path id="Shape 2" fill-rule="evenodd" class="s1" d="m-303.7 26.3c-5.4 1.2-10.1 3.7-15 6"/>
		<path id="Shape 3" fill-rule="evenodd" class="s1" d="m383.3 721.8c-43.7-0.5-333.1-36.8-300.3-378.8 21.6-225 261.8-274.4 324-265 34.1 5.2 130.3 8.8 205.8 79.8l-47.5 48.5c-49-53-133.5-60.5-165.3-60.5-115.5 0-225.2 99.2-248 199.2-61.4 269.3 226.9 314.6 233 313"/>
		<path id="Shape 4" fill-rule="evenodd" class="s1" d="m413 659l-1 62c0 0 61 6.7 60-2-2.8-24.1-9-60-9-60"/>
		<path id="Shape 5" fill-rule="evenodd" class="s2" d="m626 134l-91 94 113 21"/>
	</g>
</svg>