<svg version="1.2" xmlns="http://www.w3.org/2000/svg" viewBox="0 0 800 800" width="800" height="800">
	<title>star</title>
	<style>
		.s0 { fill: #ffc500;stroke: #ffc500;stroke-miterlimit:10 } 
		.s1 { fill: #ffff00;stroke: #ffc500;stroke-miterlimit:10 } 
		.s2 { fill: #ffd300;stroke: #ffc500;stroke-miterlimit:10 } 
	</style>
	<g id="Layer 1">
		<path id="Shape 1" fill-rule="evenodd" class="s0" d="m400 64.4l77.3 261.3 260.9 22.9-207.7 130.8 78.4 255.8-210-155.2-209.5 157 78-253.1-205.4-142.2 253.4-18.6"/>
		<g id="&lt;Group&gt;">
			<path id="Shape 1 copy 2" fill-rule="evenodd" class="s1" d="m400.4 102l68.4 231.4 231.1 20.3-183.9 115.9 69.4 226.5-186-137.4-185.6 139 69.1-224.2-181.9-125.9 224.4-16.4m12.2 11.4l-187.6 13.7 152.1 105.3-57.8 187.4 155.2-116.2 155.4 114.9-58-189.4 153.8-96.9-193.2-16.9-57.2-193.5z"/>
			<path id="Shape 1 copy 2" fill-rule="evenodd" class="s2" d=""/>
		</g>
	</g>
</svg>